<?xml version="1.0"?>
<svg xmlns="http://www.w3.org/2000/svg" viewBox="0 0 832.02 300">
  <g>
    <g>
      <g>
        <polygon fill="#fff" points="564.74 259.81 553.17 299.23 546.47 299.26 537.2 268.36 533.05 282.8 528.23 299.27 521.5 299.3 509.72 259.74 516.11 259.68 525.05 290.84 534.18 259.79 540.52 259.75 549.84 291.08 558.57 259.78 564.74 259.81"></polygon>
        <polygon fill="#fff" points="373.61 299.25 366.9 299.29 346.53 268.69 346.52 299.25 340.7 299.25 340.68 259.75 347.42 259.77 367.69 289.76 367.81 259.77 373.62 259.77 373.61 299.25"></polygon>
        <polygon fill="#fff" points="744.87 299.1 737.5 299.3 724.38 280.86 718.57 287.04 718.53 299.29 712.62 299.29 712.62 259.77 718.51 259.76 718.63 279.26 736.6 259.78 743.97 259.78 734.23 270.23 728.57 276.44 744.87 299.1"></polygon>
        <polygon fill="#fff" points="428.27 281.46 414.7 281.58 409.5 281.55 409.52 294.1 430.71 294.12 430.72 299.3 403.5 299.3 403.49 259.74 430.18 259.72 430.21 264.88 409.41 264.9 409.41 276.53 428.23 276.54 428.27 281.46"></polygon>
        <polygon fill="#fff" points="473.75 299.12 467.8 299.26 467.77 264.89 454.93 264.91 454.95 259.74 486.58 259.73 486.6 264.86 473.75 264.91 473.75 299.12"></polygon>
        <path fill="#fff" d="M613.35,299.22c-7.43,1.94-15.1.28-20.39-5.02-7.31-7.3-7.34-21.27-.35-28.9,3.94-4.31,9.32-6.21,15.12-6.26,9.23-.08,17.18,5.85,19.24,14.91,2.52,11.05-2.58,22.39-13.61,25.27ZM599.22,291.76c6.55,5.37,16.33,3.29,20.28-4.21,2.49-4.71,2.52-10.46.38-15.32-2.39-5.42-7.67-8.3-13.46-7.86-9.19.71-13.99,8.84-12.55,18.04.58,3.7,2.29,6.82,5.36,9.34Z"></path>
        <path fill="#fff" d="M685.45,299.15l-6.94.16-8.92-15.29-8.21-.02-.18,15.29h-5.93s.01-39.57.01-39.57l16.99.07c3.35.01,6.39,1.46,8.75,3.65,2.34,2.52,3.15,5.71,2.97,9.1-.26,4.96-3.21,8.83-8.12,10.42l9.57,16.2ZM677.91,271.73c.31-3.93-2.49-6.82-6.17-6.85l-10.47-.1v14.03s10.64-.13,10.64-.13c3.66-.05,6.26-3.16,6.01-6.95Z"></path>
      </g>
      <g>
        <path fill="#fff" d="M233.13,40c-.85-.1-.45.63-.53.85l-4.08,7.98c-29.11,57.9-75.72,109.09-133.7,139.05-29.44,15.21-61.47,24.39-94.8,26.77,3.5-9.66,11.89-15.81,21.61-18.03,30.54-6.98,59.9-18.18,87.21-33.62,23.42-13.24,45.2-29.13,64.21-47.96l6.89-6.82c14.34-14.95,27.9-30.55,39.21-48.24-8.11,9.42-15.61,18.81-24.28,27.53l-5.21,5.23C140.18,141.24,72.02,175.54,1.55,174.18c4.03-4.2,8.69-6.83,14.21-7.95,17.76-3.61,35-8.39,52.16-14.61,52.5-19.03,102.25-49.08,142.29-87.96,6.17-6,12.05-11.88,17.08-18.85-9.59,9.21-19.02,17.96-29.44,26.12-23.16,18.14-47.98,33.69-74.71,46.06-38.43,17.78-80.48,28.02-123.14,23.31,17.79-2.98,35.44-6.86,52.93-11.85,53.22-15.2,103.74-38.15,150.1-68.3,10.57-6.87,20.61-14.17,30.3-22.55.29.84-.11,1.67-.2,2.4Z"></path>
        <path fill="#fff" d="M237.25,40.85c.08-.22-.32-.95.53-.85-.85,7.22-2.91,14.16-5.06,21.48-5.85,19.89-14.23,38.8-24.71,56.71-32.55,55.6-82.02,98.23-139.89,126.06-20.47,9.85-41.55,17.78-64.02,23.81,2.47-14.08,12.35-25.04,25.69-29.84,15.46-5.56,30.2-12.34,44.79-19.94,56.48-29.53,105.26-73.21,138.54-127.7,9.62-15.75,18.14-32.81,24.12-49.74Z"></path>
        <path fill="#fff" d="M81.03,259.1c16.27-10.31,31.75-21.52,46.62-33.97,7.38-6.18,14.31-12.32,21.03-19.1l7.42-7.5c19.95-20.14,36.87-43.02,51.13-67.55l2.86-4.67c-20.75,61.83-61.98,110.93-124.88,132.03-1.38.56-2.26,1.37-4.18.76Z"></path>
        <path fill="#fff" d="M144.67,236.33c11.49-9.15,22.07-19.14,31.4-30.86,22.73-28.54,34.58-58.99,44.99-93.56l6.44-21.38c-1.86,29.87-6.65,60.04-19.71,87.25-8.44,17.58-20.77,32.36-36.53,43.82-8.12,5.74-16.31,11.08-26.58,14.73Z"></path>
        <path fill="#fff" d="M216.84,174.57c11.34-29.34,15.42-59.21,17.83-90.37l.75-9.7,3.61-16.2c5.21,39.01,4.93,85.22-22.19,116.27Z"></path>
      </g>
      <g>
        <path fill="#fff" d="M686.93,211.03c4.92-1.86,8.65-5.29,11.18-10.06l13.8,6.63c-4.3,8.72-11.95,14.66-21.18,17.19-9.28,2.29-19,1.95-27.89-1.88-7.85-3.38-14.36-9.45-18.1-17.19-8.61-17.84-3.44-41.71,14.03-51.87,6.76-3.93,14.24-5.36,22.01-5.09,15.47.53,28.32,10.81,32.15,25.79,1.47,5.77,1.76,11.65,1,17.56l-56.24-.02c1.27,8.97,5.86,16.51,14.53,18.92,4.82,1.34,9.72,1.42,14.71.02ZM697.02,179.42c-.59-5.97-3.36-10.91-7.87-14.19-3.48-2.37-7.41-3.16-11.62-3.07-10.27.22-17.32,7.26-19.29,17.29l38.78-.03Z"></path>
        <polygon fill="#fff" points="356.48 167.5 356.55 182.29 311.25 182.31 311.25 224.35 294.5 224.34 294.5 122.6 361.65 122.59 361.63 137.45 311.24 137.43 311.25 167.48 356.48 167.5"></polygon>
        <path fill="#fff" d="M576.07,150.37v73.97s-15.78,0-15.78,0l-.11-8.97c-6.76,10.22-20.67,12.98-32.04,9.21-12.24-4.05-17.72-15.9-17.97-28.46v-45.77s16.6,0,16.6,0v43.47c.29,9.82,5.37,17.39,15.41,17.69,11.27.33,17.36-8.7,17.21-19.66v-41.47s16.68-.03,16.68-.03Z"></path>
        <path fill="#fff" d="M437.07,150.38l.05,73.98h-15.63s-.07-9.02-.07-9.02c-6.73,9.96-19.91,12.87-31.04,9.66-12.77-3.68-18.51-15.27-18.89-28.22l-.02-46.51h16.61s-.07,43.22-.07,43.22c.14,9.98,5.38,17.77,15.49,18.01s16.82-7.77,17.12-18.01v-43.12s16.44,0,16.44,0Z"></path>
        <path fill="#fff" d="M781.34,214.76c-7.16,11.78-25.37,13.3-38.15,9.81-9.59-2.62-17.05-9.49-20.44-18.84l13.67-6.05c1.9,4.79,4.93,8.82,9.51,11.36,7.35,3.95,20.59,3.12,21.75-4.97.47-3.29-.84-6.15-3.61-7.96-1.91-1.24-4.11-1.86-6.34-2.52l-14.15-4.17c-3.52-1.04-6.62-2.72-9.56-4.81-4.82-3.43-7.33-8.48-7.5-14.36-.25-9.06,4.52-16.81,12.79-20.57,5-2.28,10.32-3.09,15.92-3.03,12.96.15,24.53,6.1,29.02,18.75l-13.55,6.18c-1.55-3.75-3.65-6.94-6.83-9.37-4.77-3.17-10.92-3.79-16.19-1.56-2.81,1.19-4.47,3.77-4.69,6.48-.56,6.87,6.95,8.6,12.56,10.34l15.74,4.89c4.62,1.85,8.77,4.71,11.01,9.34,3.19,6.59,2.89,14.75-.95,21.05Z"></path>
        <path fill="#fff" d="M497.44,224.22c-7.2,1.83-14.53,1.62-21.46-.84-9.6-3.4-13.49-12.01-13.4-22l-.03-36.64-13.35.04-.04-14.46c6.19.21,12.22-1.86,13.19-8.16l.24-6,9.48-2.2,7.11-1.97-.08,18.39h17.72s-.03,14.38-.03,14.38l-17.74.06.02,33.94c0,2.12.17,4.05.74,5.99.96,3.22,3.42,5.41,6.71,6.15,3.53.83,7.04.5,10.85-.29l.07,13.62Z"></path>
        <path fill="#fff" d="M609.71,224.35h-16.63s-.06-69.7-.06-69.7c5.37-.45,10.52-2.01,15.8-4.48l.65,9.24c5.57-9.06,15.33-11.33,25.44-10.17l-.02,15.12c-10.34-1.44-19.83.17-23.69,10.41-.93,2.93-1.47,5.79-1.47,8.99l-.03,40.61Z"></path>
        <circle fill="#fff" cx="817.77" cy="211.97" r="14.25"></circle>
        <g>
          <path fill="#fff" d="M313.46,79.41c8.73,10.94,22.4,14.45,35.61,10.57,8.61-2.53,15.04-8.88,18.33-17.36l15.46,6.62c-.78,2.73-2.12,4.99-3.67,7.41-5.71,8.08-13.58,14.08-23.13,17.17-10.79,3.49-22.54,3.52-33.34.11-15.2-4.8-26.91-16.27-31.85-31.46-3.96-12.18-3.86-25.5.04-37.72,1.34-4.19,3.39-7.77,5.65-11.44,3.66-5.93,8.6-10.63,14.54-14.28,9.8-6.02,20.92-8.34,32.44-7.59,12.99.85,25.02,6.47,33.41,16.4,2.48,2.94,4.13,6.26,5.71,9.72l-15.16,7.42c-4.93-10.59-13.06-17.35-24.65-18.74-12.44-1.19-23.88,3.63-31.01,13.82-4.89,6.99-6.71,15.04-6.74,23.51-.04,9.49,2.43,18.39,8.36,25.83Z"></path>
          <path fill="#fff" d="M688.92,71.36c2.44-3.21,5.73-5.18,9.28-6.61,3.68-1.48,7.31-2.51,11.24-3.19l23.51-4.06c.34-8.71-3.71-14.01-12.37-14.92-5.11-.48-10.12.64-14.09,3.88-2.34,2.22-3.98,4.83-5.42,7.87l-13.78-6.91c6.95-17.31,29.38-22.09,45.73-15.92,4.7,1.78,8.83,4.6,11.63,8.7,3.29,4.82,4.86,10.45,4.88,16.36l.12,48.09-15.74-.02-.11-8.71c-9.12,11.14-26.33,13.53-38.65,7.34s-13.77-21.97-6.24-31.9ZM714.42,93.69c9.68-.58,17.19-7.54,18.37-16.98.3-2.42.28-4.73.09-6.98l-23.96,4.97c-3.66.76-6.28,3.41-7.27,6.6-1.08,3.47-.19,7.47,2.58,9.79,2.83,2.36,6.39,2.83,10.2,2.6Z"></path>
          <path fill="#fff" d="M485.34,70.68c3.79-4.67,11.91-7.53,17.78-8.58l25.59-4.59c.13-3.7-.44-7.46-2.76-10.35-2.46-3.08-6.33-4.41-10.2-4.59-4.89-.34-9.59.9-13.36,4.02-2.4,2.18-3.99,4.83-5.38,7.75l-13.78-6.97c2.24-5.66,6.12-10.14,11.39-13.18,10.18-5.88,22.7-6.9,33.8-2.94,4.91,1.75,9.09,4.68,12.09,8.89s4.62,8.95,4.64,14.12l.14,50.31-15.54.03-.1-8.61c-3.08,3.48-6.45,6.26-10.83,8.04-14.42,5.85-34.96,1.56-38.12-14.21-1.36-6.78.2-13.67,4.63-19.14ZM522.02,89.18c4.11-3.42,6.31-8.34,6.75-13.61l.04-5.84-22.6,4.58c-2.68.54-5.11,1.64-6.82,3.65-2.3,2.72-2.99,6-1.8,9.44,2.83,8.19,16.71,8.22,24.44,1.79Z"></path>
          <path fill="#fff" d="M470.38,67.73c0,21.58-17.5,39.08-39.08,39.08s-39.08-17.5-39.08-39.08,17.5-39.08,39.08-39.08,39.08,17.5,39.08,39.08ZM451.51,78.03c2.33-5.7,2.35-11.79.97-17.69-1.05-4.53-3.57-8.31-6.9-11.44-4-3.77-9.07-5.34-14.53-5.3-5.28.04-10.05,1.61-13.98,5.23-2.7,2.48-5.04,5.48-6.26,9.09-4.34,12.78.02,28.11,12.88,32.5,11.29,3.85,23.18-1.01,27.82-12.38Z"></path>
          <path fill="#fff" d="M618.47,83.1c-.05,12.99-8.16,20.27-20.51,22.66-9.02,1.74-18.09.72-26.28-3.32-7-3.46-12.31-9.22-14.75-16.64l13.7-6.06c1.89,4.61,4.71,8.33,8.76,11.07,5.46,3.21,12.14,3.81,17.91,1.29,2.9-1.44,4.55-3.94,4.7-6.91.15-2.99-1.58-5.67-4.33-7.17-2.49-1.36-5.2-1.99-7.94-2.86l-14.67-4.65c-3.42-1.08-6.26-3.1-8.89-5.53-3.57-3.31-5.57-7.75-5.5-12.71.06-4.34.91-8.65,3.31-12.28,7.57-11.42,25.34-13.41,37.81-8.69,7.64,3.08,13.81,8.38,16.43,16.36l-13.18,6.38c-2.88-7.03-7.79-11.52-15.41-12.18-6.19-.54-12.51,2.37-12.58,8.29-.06,5.51,5.21,7.49,10.38,9.01l13.43,3.94c10.01,2.93,17.67,9.02,17.62,20.01Z"></path>
          <path fill="#fff" d="M674.13,104.48c-4.3.97-8.43,1.32-12.73.98-9.5-.94-18.24-5.23-20.51-14.89-.86-3.67-1.2-7.23-1.21-11.11l-.02-34.26h-13.43s-.01-14.08-.01-14.08c3.2-.08,6.22-.66,9.01-2.1,2.25-1.32,4.01-3.28,4.4-5.91l.1-9.36h16.3s.05,17.22.05,17.22h17.21s0,14.17,0,14.17l-17.24.11v33.53c-.01,2.32.24,4.39.86,6.54.9,2.81,3.14,4.74,6,5.53,3.6,1.07,7.26.91,11.19.03l.03,13.59Z"></path>
          <path fill="#fff" d="M782.61,104.58h-16.25s0-99.4,0-99.4c5.65-1.03,10.87-2.76,16.22-5.18l.03,104.58Z"></path>
        </g>
        <path fill="#fff" d="M686.93,211.03c4.92-1.86,8.65-5.29,11.18-10.06l13.8,6.63c-4.3,8.72-11.95,14.66-21.18,17.19-9.28,2.29-19,1.95-27.89-1.88-7.85-3.38-14.36-9.45-18.1-17.19-8.61-17.84-3.44-41.71,14.03-51.87,6.76-3.93,14.24-5.36,22.01-5.09,15.47.53,28.32,10.81,32.15,25.79,1.47,5.77,1.76,11.65,1,17.56l-56.24-.02c1.27,8.97,5.86,16.51,14.53,18.92,4.82,1.34,9.72,1.42,14.71.02ZM697.02,179.42c-.59-5.97-3.36-10.91-7.87-14.19-3.48-2.37-7.41-3.16-11.62-3.07-10.27.22-17.32,7.26-19.29,17.29l38.78-.03Z"></path>
        <polygon fill="#fff" points="356.48 167.5 356.55 182.29 311.25 182.31 311.25 224.35 294.5 224.34 294.5 122.6 361.65 122.59 361.63 137.45 311.24 137.43 311.25 167.48 356.48 167.5"></polygon>
        <path fill="#fff" d="M576.07,150.37v73.97s-15.78,0-15.78,0l-.11-8.97c-6.76,10.22-20.67,12.98-32.04,9.21-12.24-4.05-17.72-15.9-17.97-28.46v-45.77s16.6,0,16.6,0v43.47c.29,9.82,5.37,17.39,15.41,17.69,11.27.33,17.36-8.7,17.21-19.66v-41.47s16.68-.03,16.68-.03Z"></path>
        <path fill="#fff" d="M437.07,150.38l.05,73.98h-15.63s-.07-9.02-.07-9.02c-6.73,9.96-19.91,12.87-31.04,9.66-12.77-3.68-18.51-15.27-18.89-28.22l-.02-46.51h16.61s-.07,43.22-.07,43.22c.14,9.98,5.38,17.77,15.49,18.01s16.82-7.77,17.12-18.01v-43.12s16.44,0,16.44,0Z"></path>
        <path fill="#fff" d="M781.34,214.76c-7.16,11.78-25.37,13.3-38.15,9.81-9.59-2.62-17.05-9.49-20.44-18.84l13.67-6.05c1.9,4.79,4.93,8.82,9.51,11.36,7.35,3.95,20.59,3.12,21.75-4.97.47-3.29-.84-6.15-3.61-7.96-1.91-1.24-4.11-1.86-6.34-2.52l-14.15-4.17c-3.52-1.04-6.62-2.72-9.56-4.81-4.82-3.43-7.33-8.48-7.5-14.36-.25-9.06,4.52-16.81,12.79-20.57,5-2.28,10.32-3.09,15.92-3.03,12.96.15,24.53,6.1,29.02,18.75l-13.55,6.18c-1.55-3.75-3.65-6.94-6.83-9.37-4.77-3.17-10.92-3.79-16.19-1.56-2.81,1.19-4.47,3.77-4.69,6.48-.56,6.87,6.95,8.6,12.56,10.34l15.74,4.89c4.62,1.85,8.77,4.71,11.01,9.34,3.19,6.59,2.89,14.75-.95,21.05Z"></path>
        <path fill="#fff" d="M497.44,224.22c-7.2,1.83-14.53,1.62-21.46-.84-9.6-3.4-13.49-12.01-13.4-22l-.03-36.64-13.35.04-.04-14.46c6.19.21,12.22-1.86,13.19-8.16l.24-6,9.48-2.2,7.11-1.97-.08,18.39h17.72s-.03,14.38-.03,14.38l-17.74.06.02,33.94c0,2.12.17,4.05.74,5.99.96,3.22,3.42,5.41,6.71,6.15,3.53.83,7.04.5,10.85-.29l.07,13.62Z"></path>
        <path fill="#fff" d="M609.71,224.35h-16.63s-.06-69.7-.06-69.7c5.37-.45,10.52-2.01,15.8-4.48l.65,9.24c5.57-9.06,15.33-11.33,25.44-10.17l-.02,15.12c-10.34-1.44-19.83.17-23.69,10.41-.93,2.93-1.47,5.79-1.47,8.99l-.03,40.61Z"></path>
        <circle fill="#fff" cx="817.77" cy="211.97" r="14.25"></circle>
        <g>
          <path fill="#fff" d="M313.46,79.41c8.73,10.94,22.4,14.45,35.61,10.57,8.61-2.53,15.04-8.88,18.33-17.36l15.46,6.62c-.78,2.73-2.12,4.99-3.67,7.41-5.71,8.08-13.58,14.08-23.13,17.17-10.79,3.49-22.54,3.52-33.34.11-15.2-4.8-26.91-16.27-31.85-31.46-3.96-12.18-3.86-25.5.04-37.72,1.34-4.19,3.39-7.77,5.65-11.44,3.66-5.93,8.6-10.63,14.54-14.28,9.8-6.02,20.92-8.34,32.44-7.59,12.99.85,25.02,6.47,33.41,16.4,2.48,2.94,4.13,6.26,5.71,9.72l-15.16,7.42c-4.93-10.59-13.06-17.35-24.65-18.74-12.44-1.19-23.88,3.63-31.01,13.82-4.89,6.99-6.71,15.04-6.74,23.51-.04,9.49,2.43,18.39,8.36,25.83Z"></path>
          <path fill="#fff" d="M688.92,71.36c2.44-3.21,5.73-5.18,9.28-6.61,3.68-1.48,7.31-2.51,11.24-3.19l23.51-4.06c.34-8.71-3.71-14.01-12.37-14.92-5.11-.48-10.12.64-14.09,3.88-2.34,2.22-3.98,4.83-5.42,7.87l-13.78-6.91c6.95-17.31,29.38-22.09,45.73-15.92,4.7,1.78,8.83,4.6,11.63,8.7,3.29,4.82,4.86,10.45,4.88,16.36l.12,48.09-15.74-.02-.11-8.71c-9.12,11.14-26.33,13.53-38.65,7.34s-13.77-21.97-6.24-31.9ZM714.42,93.69c9.68-.58,17.19-7.54,18.37-16.98.3-2.42.28-4.73.09-6.98l-23.96,4.97c-3.66.76-6.28,3.41-7.27,6.6-1.08,3.47-.19,7.47,2.58,9.79,2.83,2.36,6.39,2.83,10.2,2.6Z"></path>
          <path fill="#fff" d="M485.34,70.68c3.79-4.67,11.91-7.53,17.78-8.58l25.59-4.59c.13-3.7-.44-7.46-2.76-10.35-2.46-3.08-6.33-4.41-10.2-4.59-4.89-.34-9.59.9-13.36,4.02-2.4,2.18-3.99,4.83-5.38,7.75l-13.78-6.97c2.24-5.66,6.12-10.14,11.39-13.18,10.18-5.88,22.7-6.9,33.8-2.94,4.91,1.75,9.09,4.68,12.09,8.89s4.62,8.95,4.64,14.12l.14,50.31-15.54.03-.1-8.61c-3.08,3.48-6.45,6.26-10.83,8.04-14.42,5.85-34.96,1.56-38.12-14.21-1.36-6.78.2-13.67,4.63-19.14ZM522.02,89.18c4.11-3.42,6.31-8.34,6.75-13.61l.04-5.84-22.6,4.58c-2.68.54-5.11,1.64-6.82,3.65-2.3,2.72-2.99,6-1.8,9.44,2.83,8.19,16.71,8.22,24.44,1.79Z"></path>
          <path fill="#fff" d="M470.38,67.73c0,21.58-17.5,39.08-39.08,39.08s-39.08-17.5-39.08-39.08,17.5-39.08,39.08-39.08,39.08,17.5,39.08,39.08ZM451.51,78.03c2.33-5.7,2.35-11.79.97-17.69-1.05-4.53-3.57-8.31-6.9-11.44-4-3.77-9.07-5.34-14.53-5.3-5.28.04-10.05,1.61-13.98,5.23-2.7,2.48-5.04,5.48-6.26,9.09-4.34,12.78.02,28.11,12.88,32.5,11.29,3.85,23.18-1.01,27.82-12.38Z"></path>
          <path fill="#fff" d="M618.47,83.1c-.05,12.99-8.16,20.27-20.51,22.66-9.02,1.74-18.09.72-26.28-3.32-7-3.46-12.31-9.22-14.75-16.64l13.7-6.06c1.89,4.61,4.71,8.33,8.76,11.07,5.46,3.21,12.14,3.81,17.91,1.29,2.9-1.44,4.55-3.94,4.7-6.91.15-2.99-1.58-5.67-4.33-7.17-2.49-1.36-5.2-1.99-7.94-2.86l-14.67-4.65c-3.42-1.08-6.26-3.1-8.89-5.53-3.57-3.31-5.57-7.75-5.5-12.71.06-4.34.91-8.65,3.31-12.28,7.57-11.42,25.34-13.41,37.81-8.69,7.64,3.08,13.81,8.38,16.43,16.36l-13.18,6.38c-2.88-7.03-7.79-11.52-15.41-12.18-6.19-.54-12.51,2.37-12.58,8.29-.06,5.51,5.21,7.49,10.38,9.01l13.43,3.94c10.01,2.93,17.67,9.02,17.62,20.01Z"></path>
          <path fill="#fff" d="M674.13,104.48c-4.3.97-8.43,1.32-12.73.98-9.5-.94-18.24-5.23-20.51-14.89-.86-3.67-1.2-7.23-1.21-11.11l-.02-34.26h-13.43s-.01-14.08-.01-14.08c3.2-.08,6.22-.66,9.01-2.1,2.25-1.32,4.01-3.28,4.4-5.91l.1-9.36h16.3s.05,17.22.05,17.22h17.21s0,14.17,0,14.17l-17.24.11v33.53c-.01,2.32.24,4.39.86,6.54.9,2.81,3.14,4.74,6,5.53,3.6,1.07,7.26.91,11.19.03l.03,13.59Z"></path>
          <path fill="#fff" d="M782.61,104.58h-16.25s0-99.4,0-99.4c5.65-1.03,10.87-2.76,16.22-5.18l.03,104.58Z"></path>
        </g>
      </g>
    </g>
  </g>
</svg>